<?xml version="1.0" encoding="UTF-8"?>
<svg id="Layer_1" xmlns="http://www.w3.org/2000/svg" viewBox="0 0 32 32">
  <defs>
    <filter id="invert-filter">
      <feComponentTransfer>
        <feFuncR type="table" tableValues="1 0" />
        <feFuncG type="table" tableValues="1 0" />
        <feFuncB type="table" tableValues="1 0" />
      </feComponentTransfer>
    </filter>
  </defs>
  <path class="cls-1" d="M16,32C7.18,32,0,24.82,0,16S7.18,0,16,0s16,7.18,16,16-7.18,16-16,16ZM16,.73C7.58.73.73,7.58.73,16s6.85,15.27,15.27,15.27,15.27-6.85,15.27-15.27S24.42.73,16,.73Z" filter="url(#invert-filter)"/>
  <g>
    <g>
      <path class="cls-1" d="M5.34,16.07v-5.77h.9v3.45c.67-.78,1.51-1.18,2.52-1.21.98-.04,1.83.3,2.54,1.02.72.72,1.08,1.57,1.08,2.57s-.34,1.79-1,2.48c-.66.7-1.48,1.05-2.42,1.09-.98.04-1.83-.31-2.57-1.03-.73-.72-1.08-1.57-1.06-2.55v-.05ZM10.74,17.96c.49-.54.73-1.16.72-1.89-.01-.72-.28-1.33-.79-1.85-.5-.52-1.12-.78-1.85-.78s-1.3.25-1.79.77c-.49.52-.76,1.13-.77,1.85-.02.76.23,1.41.77,1.98.54.55,1.18.82,1.92.78.71-.04,1.29-.31,1.79-.85Z" filter="url(#invert-filter)"/>
      <path class="cls-1" d="M20.09,17.31c-.25.73-.68,1.32-1.29,1.75-.61.43-1.28.65-2.03.66-.94.01-1.76-.32-2.48-1.02-.72-.71-1.09-1.54-1.1-2.51-.02-1.02.34-1.91,1.08-2.64.76-.74,1.63-1.09,2.65-1.03.91.06,1.7.43,2.38,1.13.65.68.97,1.45.97,2.3v.49h-6.14c.07.68.36,1.26.88,1.7.52.44,1.12.67,1.81.66,1.08-.01,1.85-.52,2.31-1.5h.97ZM19.36,15.61c-.13-.64-.43-1.15-.9-1.55-.47-.4-1.03-.6-1.69-.61-.66-.01-1.24.19-1.73.59-.49.4-.79.92-.92,1.57h5.24Z" filter="url(#invert-filter)"/>
      <path class="cls-1" d="M27.11,19.55h-.92v-3.99c0-.58-.22-1.07-.64-1.49-.42-.42-.9-.62-1.46-.62s-1.07.2-1.49.62c-.42.42-.62.91-.62,1.49v3.99h-.92v-3.9c0-.89.29-1.62.86-2.21.58-.59,1.29-.89,2.17-.89s1.58.3,2.16.89c.58.59.86,1.32.86,2.21v3.9Z" filter="url(#invert-filter)"/>
    </g>
    <rect class="cls-1" x="26.18" y="19.55" width=".93" height="7.75"/>
    <rect class="cls-1" x="5.34" y="4.2" width=".93" height="6.1"/>
  </g>
</svg>